<svg width="1061" height="900" viewBox="0 0 1061 900" fill="none" xmlns="http://www.w3.org/2000/svg">
<path d="M548.584 -65.3484L688.084 -137.348C688.084 -137.348 1015.58 -149.848 998.584 -65.3484C981.584 19.1516 909.084 106.152 909.084 106.152C909.084 106.152 822.084 230.652 829.584 402.152C837.084 573.652 765.084 608.652 668.084 790.152C571.084 971.652 255.084 688.152 255.084 688.152C255.084 688.152 193.084 496.652 292.584 342.652C392.084 188.652 548.584 -65.3484 548.584 -65.3484Z" fill="#FF7200"/>
<path d="M501.299 22.9669L725.018 -75.1124C725.018 -75.1124 1250.24 -92.1401 1222.97 22.9669C1195.71 138.074 1079.44 256.586 1079.44 256.586C1079.44 256.586 939.917 426.182 951.945 659.801C963.973 893.421 848.505 941.098 692.944 1188.34C537.383 1435.58 30.6062 1049.39 30.6062 1049.39C30.6062 1049.39 -68.8246 788.531 90.7458 578.75C250.316 368.969 501.299 22.9669 501.299 22.9669Z" fill="#FF7200" fill-opacity="0.4"/>
</svg>
